<svg width="79" height="94" fill="none" xmlns="http://www.w3.org/2000/svg">
  <path opacity=".3" transform="rotate(-22.9 -41 26.94)" fill="url(#a)" d="M-41 26.94h66.67v66.67H-41z"/>
  <path transform="rotate(-22.9 -41 26.94)" stroke="url(#b)" stroke-width=".7" d="M-41 26.94h66.67v66.67H-41z"/>
  <path opacity=".3" d="m50.52 7.42-30.2-6.27 25.89 61.17 30.98 5.89L50.52 7.42Z" fill="url(#c)"/>
  <path d="m50.52 7.42-30.2-6.27 25.89 61.17 30.59 5.89L50.52 7.42Z" stroke="url(#d)" stroke-width=".7"/>
  <path opacity=".3" d="m17.97 93.3-32.94-5.1 61.18-25.88 30.98 5.89-59.22 25.1Z" fill="url(#e)"/>
  <path d="m17.97 93.3-32.16-5.1 60.4-25.88 30.98 5.89-59.22 25.1Z" stroke="url(#f)" stroke-width=".7"/>
  <defs>
    <linearGradient id="a" x1="-41" y1="21.84" x2="36.97" y2="59.89" gradientUnits="userSpaceOnUse">
      <stop stop-color="#4A6CF7" stop-opacity=".62"/>
      <stop offset="1" stop-color="#4A6CF7" stop-opacity="0"/>
    </linearGradient>
    <linearGradient id="b" x1="25.67" y1="95.96" x2="-42.96" y2="20.67" gradientUnits="userSpaceOnUse">
      <stop stop-color="#4A6CF7" stop-opacity="0"/>
      <stop offset="1" stop-color="#4A6CF7" stop-opacity=".51"/>
    </linearGradient>
    <linearGradient id="c" x1="20.32" y1="-3.98" x2="90.62" y2="25.11" gradientUnits="userSpaceOnUse">
      <stop stop-color="#4A6CF7" stop-opacity=".62"/>
      <stop offset="1" stop-color="#4A6CF7" stop-opacity="0"/>
    </linearGradient>
    <linearGradient id="d" x1="18.36" y1="-1.6" x2="113.9" y2="80.68" gradientUnits="userSpaceOnUse">
      <stop stop-color="#4A6CF7" stop-opacity="0"/>
      <stop offset="1" stop-color="#4A6CF7" stop-opacity=".51"/>
    </linearGradient>
    <linearGradient id="e" x1="61.11" y1="62.32" x2="-8.82" y2="58.22" gradientUnits="userSpaceOnUse">
      <stop stop-color="#4A6CF7" stop-opacity=".62"/>
      <stop offset="1" stop-color="#4A6CF7" stop-opacity="0"/>
    </linearGradient>
    <linearGradient id="f" x1="65.42" y1="65.07" x2="24.02" y2="41.66" gradientUnits="userSpaceOnUse">
      <stop stop-color="#4A6CF7" stop-opacity="0"/>
      <stop offset="1" stop-color="#4A6CF7" stop-opacity=".51"/>
    </linearGradient>
  </defs>
</svg>
