<svg xmlns="http://www.w3.org/2000/svg" width="364" height="201" fill="none"><path stroke="url(#a)" d="M5.88928 72.3303C33.6599 66.4798 101.397 64.9086 150.178 105.427c60.977 50.649 79.412 56.666 114.155 61.18 34.743 4.513 73.385 17.05 98.556 45.633"/><path stroke="url(#b)" d="M-22.1107 72.3303c27.77059-5.8505 95.5072-7.4217 144.2887 33.0967 60.977 50.649 79.412 56.666 114.155 61.18 34.743 4.513 73.385 17.05 98.556 45.633"/><path stroke="url(#c)" d="M-53.1107 72.3303c27.7706-5.8505 95.5072-7.4217 144.289 33.0967 60.9767 50.649 79.4117 56.666 114.1547 61.18 34.743 4.513 73.385 17.05 98.556 45.633"/><path stroke="url(#d)" d="M-98.1618 65.0889c30.0202-5.0288 102.89544-4.6007 154.2352 37.3421 64.1746 52.429 83.8316 58.988 121.0636 64.525 37.233 5.537 78.438 19.209 104.719 48.525"/><circle cx="214.505" cy="60.5054" r="49.7205" stroke="url(#e)" opacity=".8" transform="rotate(-13.421 214.505 60.5054)"/><circle cx="220" cy="63" r="43" fill="url(#f)"/><defs><linearGradient id="a" x1="184.389" x2="184.389" y1="69.2405" y2="212.24" gradientUnits="userSpaceOnUse"><stop stop-color="#4A6CF7" stop-opacity="0"/><stop offset="1" stop-color="#4A6CF7"/></linearGradient><linearGradient id="b" x1="156.389" x2="156.389" y1="69.2405" y2="212.24" gradientUnits="userSpaceOnUse"><stop stop-color="#4A6CF7" stop-opacity="0"/><stop offset="1" stop-color="#4A6CF7"/></linearGradient><linearGradient id="c" x1="125.389" x2="125.389" y1="69.2405" y2="212.24" gradientUnits="userSpaceOnUse"><stop stop-color="#4A6CF7" stop-opacity="0"/><stop offset="1" stop-color="#4A6CF7"/></linearGradient><linearGradient id="d" x1="93.8507" x2="89.9278" y1="67.2674" y2="210.214" gradientUnits="userSpaceOnUse"><stop stop-color="#4A6CF7" stop-opacity="0"/><stop offset="1" stop-color="#4A6CF7"/></linearGradient><linearGradient id="e" x1="214.505" x2="212.684" y1="10.2849" y2="99.5816" gradientUnits="userSpaceOnUse"><stop stop-color="#4A6CF7"/><stop offset="1" stop-color="#4A6CF7" stop-opacity="0"/></linearGradient><radialGradient id="f" cx="0" cy="0" r="1" gradientTransform="matrix(0 43 -43 0 220 63)" gradientUnits="userSpaceOnUse"><stop offset=".145833" stop-color="#fff" stop-opacity="0"/><stop offset="1" stop-color="#fff" stop-opacity=".08"/></radialGradient></defs></svg>