<svg width="53" height="64" viewBox="0 0 53 64" fill="none" xmlns="http://www.w3.org/2000/svg">
<path d="M14.5455 29.0909H37.8182V20.3636C37.8182 17.1515 36.6818 14.4091 34.4091 12.1364C32.1364 9.86364 29.3939 8.72727 26.1818 8.72727C22.9697 8.72727 20.2273 9.86364 17.9545 12.1364C15.6818 14.4091 14.5455 17.1515 14.5455 20.3636V29.0909ZM52.3636 33.4545V59.6364C52.3636 60.8485 51.9394 61.8788 51.0909 62.7273C50.2424 63.5758 49.2121 64 48 64H4.36364C3.15152 64 2.12121 63.5758 1.27273 62.7273C0.424242 61.8788 0 60.8485 0 59.6364V33.4545C0 32.2424 0.424242 31.2121 1.27273 30.3636C2.12121 29.5152 3.15152 29.0909 4.36364 29.0909H5.81818V20.3636C5.81818 14.7879 7.81818 10 11.8182 6C15.8182 2 20.6061 0 26.1818 0C31.7576 0 36.5455 2 40.5455 6C44.5455 10 46.5455 14.7879 46.5455 20.3636V29.0909H48C49.2121 29.0909 50.2424 29.5152 51.0909 30.3636C51.9394 31.2121 52.3636 32.2424 52.3636 33.4545Z" fill="#3785F2"/>
</svg>
