<svg width="48" height="64" viewBox="0 0 48 64" fill="none" xmlns="http://www.w3.org/2000/svg">
<g clip-path="url(#clip0_1_7)">
<path d="M44 32C45.1113 32 46.0554 32.3889 46.8333 33.1667C47.6113 33.9445 48 34.8889 48 36V60C48 61.1113 47.6113 62.0554 46.8333 62.8333C46.0554 63.6113 45.1113 64 44 64H4C2.88889 64 1.94445 63.6113 1.16667 62.8333C0.388889 62.0554 0 61.1113 0 60V36C0 34.8889 0.388889 33.9445 1.16667 33.1667C1.94445 32.3889 2.88889 32 4 32H5.33333V18.6667C5.33333 13.5278 7.15971 9.13196 10.8125 5.47917C14.4653 1.82639 18.8611 0 24 0C29.1389 0 33.5347 1.82639 37.1875 5.47917C40.8403 9.13196 42.6667 13.5278 42.6667 18.6667C42.6667 19.3889 42.4029 20.0139 41.875 20.5417C41.3472 21.0695 40.7222 21.3333 40 21.3333H37.3333C36.6111 21.3333 35.9861 21.0695 35.4583 20.5417C34.9305 20.0139 34.6667 19.3889 34.6667 18.6667C34.6667 15.7222 33.625 13.2083 31.5417 11.125C29.4583 9.04167 26.9445 8 24 8C21.0555 8 18.5417 9.04167 16.4583 11.125C14.375 13.2083 13.3333 15.7222 13.3333 18.6667V32H44Z" fill="#3785F2"/>
</g>
<defs>
<clipPath id="clip0_1_7">
<rect width="48" height="64" fill="white"/>
</clipPath>
</defs>
</svg>
