<svg xmlns="http://www.w3.org/2000/svg" width="279" height="106" fill="none"><g opacity=".5"><path stroke="url(#a)" d="M-57 12 50.0728 74.8548c5.4773 4.1671 20.7785 10.9041 38.1645 4.5144 21.7327-7.9871 28.6237-18.405 68.3777-15.6269 22.163 1.5487 38.695 5.5562 49.296-1.389 10.602-6.9453 19.083-14.5851 37.105-13.1961 12.819.9881 22.262 1.7364 34.984-3.8199"/><path stroke="url(#b)" d="M-57 1 50.0728 63.8548c5.4773 4.1671 20.7785 10.9041 38.1645 4.5144 21.7327-7.9871 28.6237-18.405 68.3777-15.6269 22.163 1.5487 38.695 5.5562 49.296-1.389 10.602-6.9453 19.083-14.5851 37.105-13.1961 12.819.9881 22.262 1.7364 34.984-3.8199"/><path stroke="url(#c)" d="M-57 23 50.0728 85.8548c5.4773 4.1671 20.7785 10.9041 38.1645 4.5144 21.7327-7.9871 28.6237-18.405 68.3777-15.6269 22.163 1.5487 38.695 5.5562 49.296-1.389 10.602-6.9453 19.083-14.5851 37.105-13.1961 12.819.9881 22.262 1.7364 34.984-3.8199"/><path stroke="url(#d)" d="M-57 35 50.0728 97.8548c5.4773 4.1672 20.7785 10.9042 38.1645 4.5142 21.7327-7.9869 28.6237-18.4048 68.3777-15.6267 22.163 1.5487 38.695 5.5562 49.296-1.389 10.602-6.9453 19.083-14.5851 37.105-13.1961 12.819.9881 22.262 1.7364 34.984-3.8199"/></g><defs><linearGradient id="a" x1="256.267" x2="-40.8688" y1="53.6717" y2="8.15715" gradientUnits="userSpaceOnUse"><stop/><stop offset="1"/></linearGradient><linearGradient id="b" x1="256.267" x2="-40.8688" y1="42.6717" y2="-2.84285" gradientUnits="userSpaceOnUse"><stop/><stop offset="1"/></linearGradient><linearGradient id="c" x1="256.267" x2="-40.8688" y1="64.6717" y2="19.1572" gradientUnits="userSpaceOnUse"><stop/><stop offset="1"/></linearGradient><linearGradient id="d" x1="256.267" x2="-40.8688" y1="76.6717" y2="31.1572" gradientUnits="userSpaceOnUse"><stop/><stop offset="1"/></linearGradient></defs></svg>